<svg width="17" height="17" viewBox="0 0 17 17" fill="none" xmlns="http://www.w3.org/2000/svg">
<path d="M15 3.66662H11.6667V1.99995C11.6667 1.55792 11.4911 1.134 11.1785 0.821438C10.866 0.508877 10.442 0.333282 10 0.333282H6.66667C5.74167 0.333282 5 1.07495 5 1.99995V3.66662H1.66667C0.741667 3.66662 0 4.40828 0 5.33328V14.4999C0 14.942 0.175595 15.3659 0.488155 15.6785C0.800716 15.991 1.22464 16.1666 1.66667 16.1666H15C15.442 16.1666 15.866 15.991 16.1785 15.6785C16.4911 15.3659 16.6667 14.942 16.6667 14.4999V5.33328C16.6667 4.89125 16.4911 4.46733 16.1785 4.15477C15.866 3.84221 15.442 3.66662 15 3.66662ZM6.66667 1.99995H10V3.66662H6.66667V1.99995ZM8.33333 6.16662C8.88587 6.16662 9.41577 6.38611 9.80647 6.77681C10.1972 7.16751 10.4167 7.69741 10.4167 8.24995C10.4167 8.80248 10.1972 9.33239 9.80647 9.72309C9.41577 10.1138 8.88587 10.3333 8.33333 10.3333C7.7808 10.3333 7.2509 10.1138 6.86019 9.72309C6.46949 9.33239 6.25 8.80248 6.25 8.24995C6.25 7.69741 6.46949 7.16751 6.86019 6.77681C7.2509 6.38611 7.7808 6.16662 8.33333 6.16662ZM12.5 14.4999H4.16667V13.4583C4.16667 12.3083 6.03333 11.3749 8.33333 11.3749C10.6333 11.3749 12.5 12.3083 12.5 13.4583V14.4999Z" fill="#FEFEFE"/>
</svg>
